<svg xmlns="http://www.w3.org/2000/svg" viewBox="0 0 720 480" fill="none">
  <defs>
    <linearGradient id="bg" x1="0" y1="0" x2="720" y2="480">
      <stop offset="0%" stop-color="#0f172a"/>
      <stop offset="100%" stop-color="#1e293b"/>
    </linearGradient>
    <linearGradient id="header" x1="0" y1="0" x2="720" y2="0">
      <stop offset="0%" stop-color="#1e293b"/>
      <stop offset="100%" stop-color="#111827"/>
    </linearGradient>
  </defs>

  <!-- background -->
  <rect width="720" height="480" rx="12" fill="url(#bg)"/>

  <!-- top bar -->
  <rect width="720" height="40" rx="12" fill="url(#header)"/>
  <rect y="28" width="720" height="12" fill="url(#header)"/>
  <circle cx="20" cy="20" r="5" fill="#ef4444"/>
  <circle cx="38" cy="20" r="5" fill="#f59e0b"/>
  <circle cx="56" cy="20" r="5" fill="#22c55e"/>
  <text x="350" y="26" fill="#94a3b8" font-size="11" font-family="monospace" text-anchor="middle">Flexmodel Functions Runtime</text>

  <!-- sidebar -->
  <rect x="0" y="40" width="180" height="440" fill="#111827" opacity="0.6"/>
  <text x="16" y="70" fill="#64748b" font-size="10" font-family="monospace">FUNCTIONS</text>
  <rect x="8" y="80" width="164" height="28" rx="6" fill="#166534" opacity="0.4"/>
  <circle cx="24" cy="94" r="4" fill="#22c55e"/>
  <text x="36" y="98" fill="#4ade80" font-size="12" font-family="monospace">sendEmail</text>
  <rect x="8" y="116" width="164" height="28" rx="6" fill="#1e3a5f" opacity="0.4"/>
  <circle cx="24" cy="130" r="4" fill="#60a5fa"/>
  <text x="36" y="134" fill="#93c5fd" font-size="12" font-family="monospace">dataTransform</text>
  <rect x="8" y="152" width="164" height="28" rx="6" fill="#1e3a5f" opacity="0.4"/>
  <circle cx="24" cy="166" r="4" fill="#60a5fa"/>
  <text x="36" y="170" fill="#93c5fd" font-size="12" font-family="monospace">webhookHandler</text>
  <rect x="8" y="188" width="164" height="28" rx="6" fill="#1e3a5f" opacity="0.4"/>
  <circle cx="24" cy="202" r="4" fill="#60a5fa"/>
  <text x="36" y="206" fill="#93c5fd" font-size="12" font-family="monospace">aggregateStats</text>

  <text x="16" y="244" fill="#64748b" font-size="10" font-family="monospace">DEPLOYMENTS</text>
  <rect x="8" y="256" width="164" height="24" rx="4" fill="#172554" opacity="0.5"/>
  <text x="16" y="272" fill="#93c5fd" font-size="10" font-family="monospace">prod (v3)</text>
  <rect x="130" y="262" width="34" height="12" rx="4" fill="#166534" opacity="0.5"/>
  <text x="136" y="272" fill="#4ade80" font-size="8" font-family="monospace">active</text>

  <rect x="8" y="286" width="164" height="24" rx="4" fill="#172554" opacity="0.3"/>
  <text x="16" y="302" fill="#64748b" font-size="10" font-family="monospace">staging (v4)</text>

  <!-- main editor area -->
  <rect x="198" y="52" width="504" height="416" rx="6" fill="#0f172a"/>

  <!-- code lines -->
  <text x="214" y="74" fill="#64748b" font-size="11" font-family="monospace">1</text>
  <text x="236" y="74" fill="#93c5fd" font-size="11" font-family="monospace">import</text>
  <text x="276" y="74" fill="#e2e8f0" font-size="11" font-family="monospace">{ serve }</text>
  <text x="362" y="74" fill="#93c5fd" font-size="11" font-family="monospace"> from</text>
  <text x="394" y="74" fill="#4ade80" font-size="11" font-family="monospace"> "hono"</text>

  <text x="214" y="94" fill="#64748b" font-size="11" font-family="monospace">2</text>
  <text x="236" y="94" fill="#93c5fd" font-size="11" font-family="monospace">import</text>
  <text x="276" y="94" fill="#e2e8f0" font-size="11" font-family="monospace">{ db }</text>
  <text x="334" y="94" fill="#93c5fd" font-size="11" font-family="monospace"> from</text>
  <text x="366" y="94" fill="#4ade80" font-size="11" font-family="monospace"> "flexmodel"</text>

  <text x="214" y="120" fill="#64748b" font-size="11" font-family="monospace">3</text>
  <text x="236" y="120" fill="#e2e8f0" font-size="11" font-family="monospace"/>

  <text x="214" y="140" fill="#64748b" font-size="11" font-family="monospace">4</text>
  <text x="236" y="140" fill="#cbd5e1" font-size="11" font-family="monospace">export default</text>
  <text x="340" y="140" fill="#93c5fd" font-size="11" font-family="monospace"> function</text>
  <text x="406" y="140" fill="#facc15" font-size="11" font-family="monospace"> handler</text>
  <text x="466" y="140" fill="#e2e8f0" font-size="11" font-family="monospace">(req) {</text>

  <text x="214" y="160" fill="#64748b" font-size="11" font-family="monospace">5</text>
  <text x="248" y="160" fill="#93c5fd" font-size="11" font-family="monospace">const</text>
  <text x="288" y="160" fill="#e2e8f0" font-size="11" font-family="monospace"> data =</text>
  <text x="358" y="160" fill="#93c5fd" font-size="11" font-family="monospace"> await</text>
  <text x="400" y="160" fill="#e2e8f0" font-size="11" font-family="monospace"> db.</text>
  <text x="428" y="160" fill="#facc15" font-size="11" font-family="monospace">query</text>
  <text x="472" y="160" fill="#e2e8f0" font-size="11" font-family="monospace">(</text>

  <text x="214" y="180" fill="#64748b" font-size="11" font-family="monospace">6</text>
  <text x="260" y="180" fill="#4ade80" font-size="11" font-family="monospace">"SELECT * FROM o</text>
  <text x="484" y="180" fill="#e2e8f0" font-size="11" font-family="monospace">)</text>

  <text x="214" y="206" fill="#64748b" font-size="11" font-family="monospace">7</text>
  <text x="248" y="206" fill="#93c5fd" font-size="11" font-family="monospace">return</text>
  <text x="296" y="206" fill="#e2e8f0" font-size="11" font-family="monospace"> Response.</text>
  <text x="368" y="206" fill="#cbd5e1" font-size="11" font-family="monospace">json</text>

  <text x="214" y="226" fill="#64748b" font-size="11" font-family="monospace">8</text>
  <text x="236" y="226" fill="#e2e8f0" font-size="11" font-family="monospace">}</text>

  <text x="214" y="252" fill="#64748b" font-size="11" font-family="monospace">9</text>
  <text x="236" y="252" fill="#e2e8f0" font-size="11" font-family="monospace"/>

  <text x="214" y="272" fill="#64748b" font-size="11" font-family="monospace">10</text>
  <text x="239" y="272" fill="#cbd5e1" font-size="11" font-family="monospace">// Deploy with: fn deploy prod</text>

  <!-- cursor -->
  <rect x="482" y="272" width="8" height="12" fill="#60a5fa" opacity="0.8">
    <animate attributeName="opacity" values="1;0;1" dur="1s" repeatCount="indefinite"/>
  </rect>

  <!-- status bar -->
  <rect x="198" y="440" width="504" height="28" rx="0" fill="#1e293b"/>
  <text x="214" y="458" fill="#64748b" font-size="10" font-family="monospace">Deno 2.x</text>
  <circle cx="320" cy="454" r="3" fill="#22c55e"/>
  <text x="330" y="458" fill="#4ade80" font-size="10" font-family="monospace">Worker Ready</text>
  <rect x="420" y="448" width="60" height="12" rx="3" fill="#166534" opacity="0.4"/>
  <text x="426" y="458" fill="#4ade80" font-size="8" font-family="monospace">isolated</text>
  <text x="610" y="458" fill="#64748b" font-size="10" font-family="monospace" text-anchor="end">TypeScript</text>

  <!-- runner badge -->
  <rect x="460" y="56" width="110" height="22" rx="4" fill="#1e3a5f" stroke="#2563eb" stroke-width="0.8"/>
  <text x="470" y="70" fill="#60a5fa" font-size="9" font-family="monospace">fn: sendEmail</text>

  <!-- tab -->
  <rect x="198" y="42" width="100" height="16" rx="4" fill="#1e293b"/>
  <rect x="200" y="52" width="96" height="10" fill="#1e293b"/>
  <text x="210" y="54" fill="#93c5fd" font-size="9" font-family="monospace">📄 sendEmail.ts</text>
</svg>
