<svg width="800" height="500" viewBox="0 0 800 500" fill="none" xmlns="http://www.w3.org/2000/svg">
  <defs>
    <linearGradient id="stBg" x1="0" y1="0" x2="1" y2="1">
      <stop offset="0%" stop-color="#1a1a2e"/>
      <stop offset="100%" stop-color="#16213e"/>
    </linearGradient>
    <linearGradient id="stAccent" x1="0" y1="0" x2="1" y2="0">
      <stop offset="0%" stop-color="#667eea"/>
      <stop offset="100%" stop-color="#764ba2"/>
    </linearGradient>
  </defs>
  <rect width="800" height="500" rx="16" fill="url(#stBg)"/>
  <rect x="0" y="0" width="800" height="48" rx="16" fill="#0f0f23" opacity="0.6"/>
  <rect x="0" y="40" width="800" height="8" fill="#0f0f23" opacity="0.6"/>
  <circle cx="24" cy="24" r="5" fill="#f5576c"/>
  <circle cx="44" cy="24" r="5" fill="#f093fb"/>
  <circle cx="64" cy="24" r="5" fill="#4facfe"/>
  <rect x="320" y="16" width="160" height="16" rx="8" fill="#ffffff" opacity="0.1"/>
  <!-- Sidebar buckets -->
  <rect x="0" y="48" width="180" height="452" fill="#0f0f23" opacity="0.5"/>
  <text x="20" y="80" font-family="Segoe UI, sans-serif" font-size="13" font-weight="700" fill="#fff">存储桶</text>
  <rect x="20" y="96" width="140" height="32" rx="8" fill="#667eea" opacity="0.25"/>
  <text x="34" y="116" font-family="Segoe UI, sans-serif" font-size="11" fill="#fff">📁 public</text>
  <text x="146" y="116" text-anchor="end" font-family="Segoe UI, sans-serif" font-size="9" fill="#a8b2d1">128</text>
  <rect x="20" y="136" width="140" height="32" rx="8" fill="#ffffff" opacity="0.05"/>
  <text x="34" y="156" font-family="Segoe UI, sans-serif" font-size="11" fill="#a8b2d1">📁 private</text>
  <text x="146" y="156" text-anchor="end" font-family="Segoe UI, sans-serif" font-size="9" fill="#8892b0">64</text>
  <rect x="20" y="176" width="140" height="32" rx="8" fill="#ffffff" opacity="0.05"/>
  <text x="34" y="196" font-family="Segoe UI, sans-serif" font-size="11" fill="#a8b2d1">📁 backups</text>
  <text x="146" y="196" text-anchor="end" font-family="Segoe UI, sans-serif" font-size="9" fill="#8892b0">12</text>
  <text x="20" y="236" font-family="Segoe UI, sans-serif" font-size="11" font-weight="600" fill="#a8b2d1">存储后端</text>
  <rect x="20" y="248" width="64" height="22" rx="6" fill="#4facfe" opacity="0.25"/>
  <text x="34" y="263" font-family="Segoe UI, sans-serif" font-size="9" fill="#4facfe">AWS S3</text>
  <rect x="90" y="248" width="60" height="22" rx="6" fill="#22c55e" opacity="0.25"/>
  <text x="100" y="263" font-family="Segoe UI, sans-serif" font-size="9" fill="#22c55e">阿里 OSS</text>
  <rect x="20" y="278" width="64" height="22" rx="6" fill="#f093fb" opacity="0.25"/>
  <text x="34" y="293" font-family="Segoe UI, sans-serif" font-size="9" fill="#f093fb">本地</text>
  <!-- Content -->
  <text x="210" y="84" font-family="Segoe UI, sans-serif" font-size="18" font-weight="700" fill="#fff">对象存储 / public</text>
  <rect x="210" y="96" width="120" height="4" rx="2" fill="url(#stAccent)"/>
  <rect x="210" y="120" width="560" height="40" rx="8" fill="#ffffff" opacity="0.06"/>
  <text x="226" y="144" font-family="Segoe UI, sans-serif" font-size="11" fill="#8892b0">🔍 搜索文件...</text>
  <rect x="690" y="128" width="68" height="24" rx="12" fill="url(#stAccent)"/>
  <text x="724" y="144" text-anchor="middle" font-family="Segoe UI, sans-serif" font-size="10" fill="#fff">上传</text>
  <!-- File grid header -->
  <rect x="210" y="176" width="560" height="32" rx="6" fill="#ffffff" opacity="0.04"/>
  <text x="226" y="196" font-family="Segoe UI, sans-serif" font-size="10" font-weight="600" fill="#8892b0">名称</text>
  <text x="440" y="196" font-family="Segoe UI, sans-serif" font-size="10" font-weight="600" fill="#8892b0">大小</text>
  <text x="540" y="196" font-family="Segoe UI, sans-serif" font-size="10" font-weight="600" fill="#8892b0">修改时间</text>
  <text x="680" y="196" font-family="Segoe UI, sans-serif" font-size="10" font-weight="600" fill="#8892b0">操作</text>
  <!-- File rows -->
  <g font-family="Segoe UI, sans-serif" font-size="11" fill="#a8b2d1">
    <rect x="210" y="216" width="560" height="36" rx="6" fill="#ffffff" opacity="0.03"/>
    <text x="226" y="239">🖼️ cover.png</text>
    <text x="440" y="239" fill="#8892b0">2.4 MB</text>
    <text x="540" y="239" fill="#8892b0">06-30 11:08</text>
    <text x="680" y="239" fill="#667eea">下载</text>
    <rect x="210" y="258" width="560" height="36" rx="6" fill="#ffffff" opacity="0.03"/>
    <text x="226" y="281">📄 report.pdf</text>
    <text x="440" y="281" fill="#8892b0">856 KB</text>
    <text x="540" y="281" fill="#8892b0">06-30 10:32</text>
    <text x="680" y="281" fill="#667eea">下载</text>
    <rect x="210" y="300" width="560" height="36" rx="6" fill="#667eea" opacity="0.08"/>
    <text x="226" y="323">🎬 demo.mp4</text>
    <text x="440" y="323" fill="#8892b0">48.2 MB</text>
    <text x="540" y="323" fill="#8892b0">06-29 18:04</text>
    <text x="680" y="323" fill="#667eea">下载</text>
    <rect x="210" y="342" width="560" height="36" rx="6" fill="#ffffff" opacity="0.03"/>
    <text x="226" y="365">📦 data-export.zip</text>
    <text x="440" y="365" fill="#8892b0">12.6 MB</text>
    <text x="540" y="365" fill="#8892b0">06-29 09:21</text>
    <text x="680" y="365" fill="#667eea">下载</text>
    <rect x="210" y="384" width="560" height="36" rx="6" fill="#ffffff" opacity="0.03"/>
    <text x="226" y="407">🎵 intro.mp3</text>
    <text x="440" y="407" fill="#8892b0">3.1 MB</text>
    <text x="540" y="407" fill="#8892b0">06-28 14:50</text>
    <text x="680" y="407" fill="#667eea">下载</text>
  </g>
  <!-- Upload progress -->
  <rect x="210" y="438" width="560" height="40" rx="8" fill="#0f0f23" opacity="0.6"/>
  <text x="226" y="462" font-family="Segoe UI, sans-serif" font-size="10" fill="#a8b2d1">⬆ 上传中 screenshot.png · 68%</text>
  <rect x="540" y="452" width="200" height="8" rx="4" fill="#ffffff" opacity="0.1"/>
  <rect x="540" y="452" width="136" height="8" rx="4" fill="url(#stAccent)"/>
</svg>
