<svg width="800" height="500" viewBox="0 0 800 500" fill="none" xmlns="http://www.w3.org/2000/svg">
  <defs>
    <linearGradient id="dmBg" x1="0" y1="0" x2="1" y2="1">
      <stop offset="0%" stop-color="#1a1a2e"/>
      <stop offset="100%" stop-color="#16213e"/>
    </linearGradient>
    <linearGradient id="dmAccent" x1="0" y1="0" x2="1" y2="0">
      <stop offset="0%" stop-color="#3b82f6"/>
      <stop offset="100%" stop-color="#2563eb"/>
    </linearGradient>
    <linearGradient id="dmBar" x1="0" y1="1" x2="0" y2="0">
      <stop offset="0%" stop-color="#3b82f6"/>
      <stop offset="100%" stop-color="#a5b3f7"/>
    </linearGradient>
  </defs>
  <rect width="800" height="500" rx="16" fill="url(#dmBg)"/>
  <!-- Top bar -->
  <rect x="0" y="0" width="800" height="48" rx="16" fill="#0f0f23" opacity="0.6"/>
  <rect x="0" y="40" width="800" height="8" fill="#0f0f23" opacity="0.6"/>
  <circle cx="24" cy="24" r="5" fill="#3b82f6"/>
  <circle cx="44" cy="24" r="5" fill="#60a5fa"/>
  <circle cx="64" cy="24" r="5" fill="#4facfe"/>
  <rect x="320" y="16" width="160" height="16" rx="8" fill="#ffffff" opacity="0.1"/>
  <!-- Sidebar -->
  <rect x="0" y="48" width="180" height="452" fill="#0f0f23" opacity="0.5"/>
  <rect x="20" y="76" width="140" height="14" rx="7" fill="#3b82f6" opacity="0.8"/>
  <rect x="20" y="108" width="100" height="10" rx="5" fill="#ffffff" opacity="0.25"/>
  <rect x="20" y="132" width="120" height="10" rx="5" fill="#ffffff" opacity="0.15"/>
  <rect x="20" y="156" width="90" height="10" rx="5" fill="#ffffff" opacity="0.15"/>
  <rect x="20" y="180" width="110" height="10" rx="5" fill="#ffffff" opacity="0.15"/>
  <rect x="20" y="204" width="80" height="10" rx="5" fill="#ffffff" opacity="0.15"/>
  <!-- Content -->
  <text x="210" y="84" font-family="Segoe UI, sans-serif" font-size="18" font-weight="700" fill="#ffffff">数据模型 / User</text>
  <rect x="210" y="96" width="120" height="4" rx="2" fill="url(#dmAccent)"/>
  <!-- Field rows table -->
  <rect x="210" y="120" width="570" height="36" rx="8" fill="#ffffff" opacity="0.06"/>
  <text x="224" y="143" font-family="Segoe UI, sans-serif" font-size="11" fill="#8892b0">字段名</text>
  <text x="360" y="143" font-family="Segoe UI, sans-serif" font-size="11" fill="#8892b0">类型</text>
  <text x="500" y="143" font-family="Segoe UI, sans-serif" font-size="11" fill="#8892b0">约束</text>
  <text x="640" y="143" font-family="Segoe UI, sans-serif" font-size="11" fill="#8892b0">索引</text>
  <g font-family="Segoe UI, sans-serif" font-size="11" fill="#a8b2d1">
    <text x="224" y="178">id</text>
    <text x="360" y="178" fill="#4facfe">BIGINT</text>
    <text x="500" y="178">PRIMARY</text>
    <text x="640" y="178" fill="#22c55e">●</text>
    <text x="224" y="208">username</text>
    <text x="360" y="208" fill="#4facfe">VARCHAR</text>
    <text x="500" y="208">NOT NULL</text>
    <text x="640" y="208" fill="#22c55e">●</text>
    <text x="224" y="238">email</text>
    <text x="360" y="238" fill="#4facfe">VARCHAR</text>
    <text x="500" y="238">UNIQUE</text>
    <text x="640" y="238" fill="#22c55e">●</text>
    <text x="224" y="268">created_at</text>
    <text x="360" y="268" fill="#4facfe">TIMESTAMP</text>
    <text x="500" y="268">DEFAULT</text>
    <text x="640" y="268" fill="#64748b">○</text>
    <text x="224" y="298">status</text>
    <text x="360" y="298" fill="#4facfe">ENUM</text>
    <text x="500" y="298">NOT NULL</text>
    <text x="640" y="298" fill="#22c55e">●</text>
  </g>
  <line x1="210" y1="312" x2="780" y2="312" stroke="#ffffff" stroke-opacity="0.08"/>
  <!-- Charts -->
  <rect x="210" y="332" width="270" height="140" rx="12" fill="#ffffff" opacity="0.05"/>
  <text x="226" y="356" font-family="Segoe UI, sans-serif" font-size="12" font-weight="600" fill="#a8b2d1">数据量趋势</text>
  <rect x="230" y="436" width="22" height="24" rx="3" fill="url(#dmBar)" opacity="0.5"/>
  <rect x="260" y="420" width="22" height="40" rx="3" fill="url(#dmBar)" opacity="0.6"/>
  <rect x="290" y="400" width="22" height="60" rx="3" fill="url(#dmBar)" opacity="0.75"/>
  <rect x="320" y="384" width="22" height="76" rx="3" fill="url(#dmBar)" opacity="0.85"/>
  <rect x="350" y="368" width="22" height="92" rx="3" fill="url(#dmBar)"/>
  <rect x="380" y="352" width="22" height="108" rx="3" fill="url(#dmBar)"/>
  <rect x="410" y="372" width="22" height="88" rx="3" fill="url(#dmBar)" opacity="0.9"/>
  <rect x="440" y="392" width="22" height="68" rx="3" fill="url(#dmBar)" opacity="0.8"/>
  <rect x="510" y="332" width="270" height="140" rx="12" fill="#ffffff" opacity="0.05"/>
  <text x="526" y="356" font-family="Segoe UI, sans-serif" font-size="12" font-weight="600" fill="#a8b2d1">数据库支持</text>
  <g font-family="Segoe UI, sans-serif" font-size="10" fill="#a8b2d1">
    <rect x="526" y="372" width="60" height="22" rx="11" fill="#3b82f6" opacity="0.25"/>
    <text x="540" y="387">MySQL</text>
    <rect x="592" y="372" width="64" height="22" rx="11" fill="#3b82f6" opacity="0.25"/>
    <text x="604" y="387">PostgreSQL</text>
    <rect x="662" y="372" width="50" height="22" rx="11" fill="#3b82f6" opacity="0.25"/>
    <text x="675" y="387">Oracle</text>
    <rect x="718" y="372" width="48" height="22" rx="11" fill="#3b82f6" opacity="0.25"/>
    <text x="728" y="387">DM</text>
    <rect x="526" y="402" width="58" height="22" rx="11" fill="#2563eb" opacity="0.3"/>
    <text x="538" y="417">SQLite</text>
    <rect x="590" y="402" width="58" height="22" rx="11" fill="#2563eb" opacity="0.3"/>
    <text x="602" y="417">MariaDB</text>
    <rect x="654" y="402" width="70" height="22" rx="11" fill="#2563eb" opacity="0.3"/>
    <text x="666" y="417">Kingbase</text>
    <rect x="730" y="402" width="36" height="22" rx="11" fill="#2563eb" opacity="0.3"/>
    <text x="738" y="417">...</text>
  </g>
</svg>
