<svg width="800" height="500" viewBox="0 0 800 500" fill="none" xmlns="http://www.w3.org/2000/svg">
  <defs>
    <linearGradient id="mcpBg" x1="0" y1="0" x2="1" y2="1">
      <stop offset="0%" stop-color="#1a1a2e"/>
      <stop offset="100%" stop-color="#16213e"/>
    </linearGradient>
    <linearGradient id="mcpAccent" x1="0" y1="0" x2="1" y2="0">
      <stop offset="0%" stop-color="#667eea"/>
      <stop offset="100%" stop-color="#764ba2"/>
    </linearGradient>
  </defs>
  <rect width="800" height="500" rx="16" fill="url(#mcpBg)"/>
  <!-- Top bar -->
  <rect x="0" y="0" width="800" height="48" rx="16" fill="#0f0f23" opacity="0.6"/>
  <rect x="0" y="40" width="800" height="8" fill="#0f0f23" opacity="0.6"/>
  <circle cx="24" cy="24" r="5" fill="#f5576c"/>
  <circle cx="44" cy="24" r="5" fill="#f093fb"/>
  <circle cx="64" cy="24" r="5" fill="#4facfe"/>
  <rect x="300" y="16" width="200" height="16" rx="8" fill="#ffffff" opacity="0.1"/>
  <!-- Left: AI Client -->
  <rect x="32" y="80" width="240" height="380" rx="14" fill="#ffffff" opacity="0.05"/>
  <rect x="32" y="80" width="240" height="44" rx="14" fill="#667eea" opacity="0.2"/>
  <rect x="32" y="112" width="240" height="12" fill="#667eea" opacity="0.2"/>
  <circle cx="58" cy="102" r="10" fill="#667eea"/>
  <text x="58" y="106" text-anchor="middle" font-family="Segoe UI, sans-serif" font-size="11" fill="#fff">AI</text>
  <text x="78" y="107" font-family="Segoe UI, sans-serif" font-size="13" font-weight="700" fill="#fff">AI 客户端</text>
  <text x="48" y="150" font-family="Segoe UI, sans-serif" font-size="10" fill="#8892b0">Claude / Cursor / Codex</text>
  <rect x="48" y="166" width="208" height="60" rx="8" fill="#0f0f23" opacity="0.6"/>
  <text x="58" y="184" font-family="Consolas, monospace" font-size="9" fill="#4facfe">$</text>
  <text x="70" y="184" font-family="Consolas, monospace" font-size="9" fill="#a8b2d1">帮我创建用户模型</text>
  <text x="58" y="202" font-family="Consolas, monospace" font-size="9" fill="#a8b2d1">包含姓名、邮箱字段</text>
  <text x="58" y="218" font-family="Consolas, monospace" font-size="9" fill="#22c55e">✓ 已调用 MCP 工具</text>
  <rect x="48" y="240" width="208" height="80" rx="8" fill="#0f0f23" opacity="0.4"/>
  <text x="58" y="258" font-family="Segoe UI, sans-serif" font-size="9" fill="#8892b0">工具调用记录</text>
  <rect x="58" y="268" width="188" height="14" rx="4" fill="#764ba2" opacity="0.3"/>
  <text x="64" y="278" font-family="Consolas, monospace" font-size="8" fill="#fff">createModel()</text>
  <rect x="58" y="288" width="188" height="14" rx="4" fill="#764ba2" opacity="0.3"/>
  <text x="64" y="298" font-family="Consolas, monospace" font-size="8" fill="#fff">insertData()</text>
  <rect x="58" y="308" width="188" height="14" rx="4" fill="#764ba2" opacity="0.3"/>
  <text x="64" y="318" font-family="Consolas, monospace" font-size="8" fill="#fff">queryData()</text>
  <!-- Arrow -->
  <line x1="280" y1="270" x2="350" y2="270" stroke="url(#mcpAccent)" stroke-width="2.5"/>
  <polygon points="350,264 362,270 350,276" fill="#764ba2"/>
  <text x="315" y="258" text-anchor="middle" font-family="Segoe UI, sans-serif" font-size="9" font-weight="600" fill="#a5b3f7">MCP</text>
  <!-- Center: MCP Server -->
  <rect x="362" y="140" width="150" height="260" rx="14" fill="#0f0f23" stroke="#667eea" stroke-width="1.5"/>
  <rect x="362" y="140" width="150" height="40" rx="14" fill="url(#mcpAccent)"/>
  <rect x="362" y="166" width="150" height="14" fill="url(#mcpAccent)"/>
  <text x="437" y="165" text-anchor="middle" font-family="Segoe UI, sans-serif" font-size="13" font-weight="700" fill="#fff">Flexmodel</text>
  <text x="437" y="180" text-anchor="middle" font-family="Segoe UI, sans-serif" font-size="9" fill="#fff" opacity="0.8">MCP Server</text>
  <g font-family="Segoe UI, sans-serif" font-size="10" fill="#a8b2d1">
    <rect x="378" y="200" width="118" height="26" rx="6" fill="#ffffff" opacity="0.06"/>
    <circle cx="392" cy="213" r="4" fill="#22c55e"/>
    <text x="404" y="217">createModel</text>
    <rect x="378" y="234" width="118" height="26" rx="6" fill="#ffffff" opacity="0.06"/>
    <circle cx="392" cy="247" r="4" fill="#22c55e"/>
    <text x="404" y="251">queryData</text>
    <rect x="378" y="268" width="118" height="26" rx="6" fill="#ffffff" opacity="0.06"/>
    <circle cx="392" cy="281" r="4" fill="#22c55e"/>
    <text x="404" y="285">insertData</text>
    <rect x="378" y="302" width="118" height="26" rx="6" fill="#ffffff" opacity="0.06"/>
    <circle cx="392" cy="315" r="4" fill="#22c55e"/>
    <text x="404" y="319">updateData</text>
    <rect x="378" y="336" width="118" height="26" rx="6" fill="#ffffff" opacity="0.06"/>
    <circle cx="392" cy="349" r="4" fill="#f093fb"/>
    <text x="404" y="353">+ 11 more</text>
  </g>
  <!-- Arrow -->
  <line x1="520" y1="270" x2="590" y2="270" stroke="url(#mcpAccent)" stroke-width="2.5"/>
  <polygon points="590,264 602,270 590,276" fill="#764ba2"/>
  <!-- Right: Data sources -->
  <rect x="602" y="80" width="166" height="380" rx="14" fill="#ffffff" opacity="0.05"/>
  <rect x="602" y="80" width="166" height="44" rx="14" fill="#f093fb" opacity="0.18"/>
  <rect x="602" y="112" width="166" height="12" fill="#f093fb" opacity="0.18"/>
  <text x="685" y="108" text-anchor="middle" font-family="Segoe UI, sans-serif" font-size="13" font-weight="700" fill="#fff">数据源</text>
  <g font-family="Segoe UI, sans-serif" font-size="10" fill="#a8b2d1">
    <rect x="618" y="146" width="134" height="48" rx="10" fill="#0f0f23" opacity="0.5"/>
    <circle cx="636" cy="170" r="10" fill="#4facfe" opacity="0.3"/>
    <text x="636" y="174" text-anchor="middle" font-size="9" fill="#4facfe">DB</text>
    <text x="654" y="166" font-weight="600" fill="#fff">MySQL</text>
    <text x="654" y="180" font-size="8" fill="#8892b0">主库 · 10 表</text>
    <rect x="618" y="204" width="134" height="48" rx="10" fill="#0f0f23" opacity="0.5"/>
    <circle cx="636" cy="228" r="10" fill="#22c55e" opacity="0.3"/>
    <text x="636" y="232" text-anchor="middle" font-size="9" fill="#22c55e">PG</text>
    <text x="654" y="224" font-weight="600" fill="#fff">PostgreSQL</text>
    <text x="654" y="238" font-size="8" fill="#8892b0">分析库 · 24 表</text>
    <rect x="618" y="262" width="134" height="48" rx="10" fill="#0f0f23" opacity="0.5"/>
    <circle cx="636" cy="286" r="10" fill="#f093fb" opacity="0.3"/>
    <text x="636" y="290" text-anchor="middle" font-size="9" fill="#f093fb">S3</text>
    <text x="654" y="282" font-weight="600" fill="#fff">对象存储</text>
    <text x="654" y="296" font-size="8" fill="#8892b0">3 Bucket</text>
    <rect x="618" y="320" width="134" height="48" rx="10" fill="#0f0f23" opacity="0.5"/>
    <circle cx="636" cy="344" r="10" fill="#764ba2" opacity="0.4"/>
    <text x="636" y="348" text-anchor="middle" font-size="8" fill="#a5b3f7">API</text>
    <text x="654" y="340" font-weight="600" fill="#fff">REST/GraphQL</text>
    <text x="654" y="354" font-size="8" fill="#8892b0">自动生成</text>
  </g>
</svg>
