<svg width="800" height="500" viewBox="0 0 800 500" fill="none" xmlns="http://www.w3.org/2000/svg">
  <defs>
    <linearGradient id="auBg" x1="0" y1="0" x2="1" y2="1">
      <stop offset="0%" stop-color="#1a1a2e"/>
      <stop offset="100%" stop-color="#16213e"/>
    </linearGradient>
    <linearGradient id="auAccent" x1="0" y1="0" x2="1" y2="0">
      <stop offset="0%" stop-color="#667eea"/>
      <stop offset="100%" stop-color="#764ba2"/>
    </linearGradient>
  </defs>
  <rect width="800" height="500" rx="16" fill="url(#auBg)"/>
  <rect x="0" y="0" width="800" height="48" rx="16" fill="#0f0f23" opacity="0.6"/>
  <rect x="0" y="40" width="800" height="8" fill="#0f0f23" opacity="0.6"/>
  <circle cx="24" cy="24" r="5" fill="#f5576c"/>
  <circle cx="44" cy="24" r="5" fill="#f093fb"/>
  <circle cx="64" cy="24" r="5" fill="#4facfe"/>
  <rect x="320" y="16" width="160" height="16" rx="8" fill="#ffffff" opacity="0.1"/>
  <!-- Sidebar -->
  <rect x="0" y="48" width="170" height="452" fill="#0f0f23" opacity="0.5"/>
  <rect x="20" y="76" width="130" height="14" rx="7" fill="#667eea" opacity="0.8"/>
  <rect x="20" y="110" width="100" height="10" rx="5" fill="#ffffff" opacity="0.15"/>
  <rect x="20" y="134" width="120" height="10" rx="5" fill="#ffffff" opacity="0.4"/>
  <rect x="20" y="158" width="90" height="10" rx="5" fill="#ffffff" opacity="0.15"/>
  <rect x="20" y="182" width="110" height="10" rx="5" fill="#ffffff" opacity="0.15"/>
  <!-- Title -->
  <text x="200" y="84" font-family="Segoe UI, sans-serif" font-size="18" font-weight="700" fill="#fff">权限管理 · RBAC</text>
  <rect x="200" y="96" width="120" height="4" rx="2" fill="url(#auAccent)"/>
  <!-- Role cards -->
  <rect x="200" y="120" width="180" height="80" rx="12" fill="#667eea" opacity="0.15" stroke="#667eea" stroke-opacity="0.4"/>
  <circle cx="228" cy="152" r="16" fill="#667eea"/>
  <text x="228" y="156" text-anchor="middle" font-family="Segoe UI, sans-serif" font-size="11" fill="#fff">管</text>
  <text x="254" y="148" font-family="Segoe UI, sans-serif" font-size="13" font-weight="700" fill="#fff">管理员</text>
  <text x="254" y="166" font-family="Segoe UI, sans-serif" font-size="9" fill="#a8b2d1">全部权限</text>
  <text x="254" y="184" font-family="Segoe UI, sans-serif" font-size="9" fill="#22c55e">● 12 用户</text>
  <rect x="394" y="120" width="180" height="80" rx="12" fill="#ffffff" opacity="0.05" stroke="#ffffff" stroke-opacity="0.1"/>
  <circle cx="422" cy="152" r="16" fill="#f093fb" opacity="0.5"/>
  <text x="422" y="156" text-anchor="middle" font-family="Segoe UI, sans-serif" font-size="11" fill="#fff">编</text>
  <text x="448" y="148" font-family="Segoe UI, sans-serif" font-size="13" font-weight="700" fill="#fff">编辑者</text>
  <text x="448" y="166" font-family="Segoe UI, sans-serif" font-size="9" fill="#a8b2d1">读写权限</text>
  <text x="448" y="184" font-family="Segoe UI, sans-serif" font-size="9" fill="#f093fb">● 38 用户</text>
  <rect x="588" y="120" width="180" height="80" rx="12" fill="#ffffff" opacity="0.05" stroke="#ffffff" stroke-opacity="0.1"/>
  <circle cx="616" cy="152" r="16" fill="#4facfe" opacity="0.5"/>
  <text x="616" y="156" text-anchor="middle" font-family="Segoe UI, sans-serif" font-size="11" fill="#fff">访</text>
  <text x="642" y="148" font-family="Segoe UI, sans-serif" font-size="13" font-weight="700" fill="#fff">访客</text>
  <text x="642" y="166" font-family="Segoe UI, sans-serif" font-size="9" fill="#a8b2d1">只读权限</text>
  <text x="642" y="184" font-family="Segoe UI, sans-serif" font-size="9" fill="#4facfe">● 126 用户</text>
  <!-- Permission matrix -->
  <rect x="200" y="220" width="570" height="36" rx="8" fill="#ffffff" opacity="0.06"/>
  <text x="216" y="243" font-family="Segoe UI, sans-serif" font-size="11" font-weight="600" fill="#a8b2d1">资源</text>
  <text x="420" y="243" font-family="Segoe UI, sans-serif" font-size="11" font-weight="600" fill="#a8b2d1">管理员</text>
  <text x="520" y="243" font-family="Segoe UI, sans-serif" font-size="11" font-weight="600" fill="#a8b2d1">编辑者</text>
  <text x="620" y="243" font-family="Segoe UI, sans-serif" font-size="11" font-weight="600" fill="#a8b2d1">访客</text>
  <g font-family="Segoe UI, sans-serif" font-size="11" fill="#a8b2d1">
    <text x="216" y="278">user.*</text>
    <text x="416" y="278" fill="#22c55e">✓ CRUD</text>
    <text x="516" y="278" fill="#22c55e">✓ CRU</text>
    <text x="616" y="278" fill="#4facfe">✓ R</text>
    <text x="216" y="306">order.*</text>
    <text x="416" y="306" fill="#22c55e">✓ CRUD</text>
    <text x="516" y="306" fill="#22c55e">✓ CRU</text>
    <text x="616" y="306" fill="#64748b">—</text>
    <text x="216" y="334">system.config</text>
    <text x="416" y="334" fill="#22c55e">✓ CRUD</text>
    <text x="516" y="334" fill="#64748b">—</text>
    <text x="616" y="334" fill="#64748b">—</text>
    <text x="216" y="362">audit.log</text>
    <text x="416" y="362" fill="#22c55e">✓ R</text>
    <text x="516" y="362" fill="#64748b">—</text>
    <text x="616" y="362" fill="#64748b">—</text>
  </g>
  <line x1="200" y1="378" x2="770" y2="378" stroke="#ffffff" stroke-opacity="0.08"/>
  <!-- Auth providers -->
  <text x="200" y="408" font-family="Segoe UI, sans-serif" font-size="12" font-weight="600" fill="#a8b2d1">身份提供商</text>
  <g font-family="Segoe UI, sans-serif" font-size="10" fill="#a8b2d1">
    <rect x="200" y="424" width="70" height="26" rx="13" fill="#667eea" opacity="0.25"/>
    <text x="213" y="441">OIDC</text>
    <rect x="278" y="424" width="70" height="26" rx="13" fill="#667eea" opacity="0.25"/>
    <text x="298" y="441">LDAP</text>
    <rect x="356" y="424" width="80" height="26" rx="13" fill="#764ba2" opacity="0.3"/>
    <text x="372" y="441">社交账号</text>
    <rect x="444" y="424" width="60" height="26" rx="13" fill="#4facfe" opacity="0.3"/>
    <text x="460" y="441">JWT</text>
    <rect x="512" y="424" width="90" height="26" rx="13" fill="#f093fb" opacity="0.25"/>
    <text x="528" y="441">多租户</text>
  </g>
</svg>
